<svg width="44" height="44" viewBox="0 0 44 44" fill="none" xmlns="http://www.w3.org/2000/svg">
	<path fill-rule="evenodd" clip-rule="evenodd" d="M12 0H32C40.6274 0 44 3.37258 44 12V32C44 40.6274 40.6274 44 32 44H12C3.37258 44 0 40.6274 0 32V12C0 3.37258 3.37258 0 12 0Z" fill="#2C2738" />
	<path fill-rule="evenodd" clip-rule="evenodd" d="M17 20.9366V14.9683H24.5974C22.2853 21.3717 21.77 26.0139 23.2929 29.1857L23.3629 29.3223C25.5933 33.4129 29.774 34.007 34.4203 31.5228C35.8797 30.7426 36.4269 28.9332 35.6425 27.4815C34.858 26.0298 33.0391 25.4855 31.5797 26.2658C29.6202 27.3135 29.104 27.2801 28.6767 26.5472C27.8967 24.7627 28.79 20.1332 31.7627 13.1474C32.6 11.1798 31.148 9 29 9H14C12.3431 9 11 10.336 11 11.9841V20.9366C11 22.5847 12.3431 23.9207 14 23.9207C15.6569 23.9207 17 22.5847 17 20.9366ZM18 30C18 32.2091 16.2091 34 14 34C11.7909 34 10 32.2091 10 30C10 27.7909 11.7909 26 14 26C16.2091 26 18 27.7909 18 30Z" fill="white" />
</svg>
	