<svg width="1440" height="720" viewBox="0 0 1440 720" fill="none" xmlns="http://www.w3.org/2000/svg">
	<g clip-path="url(#clip0_30_6398)">
		<rect width="1440" height="720" fill="#2C2738" />
		<path fill-rule="evenodd" clip-rule="evenodd" d="M1440 382L992 830H1440V382Z" fill="#14A38B" />
		<path fill-rule="evenodd" clip-rule="evenodd" d="M1440 -50V710L680 -50L1440 -50Z" fill="#F2AC57" />
		<path fill-rule="evenodd" clip-rule="evenodd" d="M994 264L680 -50H994V264V264Z" fill="#D6CF6E" />
		<path fill-rule="evenodd" clip-rule="evenodd" d="M836.5 106.5L680 -50H993L836.5 106.5Z" fill="#14A38B" />
		<rect x="1218" y="-50" width="222" height="222" fill="#D6CF6E" />
		<path fill-rule="evenodd" clip-rule="evenodd" d="M996 -50H1218V172L996 -50Z" fill="#2C2738" />
		<path fill-rule="evenodd" clip-rule="evenodd" d="M1440 -50V491L1169 220.5L1440 -50Z" fill="#F2AC57" />
		<path fill-rule="evenodd" clip-rule="evenodd" d="M1178 288H1440V547L1178 288Z" fill="#D6CF6E" />
		<path fill-rule="evenodd" clip-rule="evenodd" d="M1250.5 367C1322.02 367 1380 309.021 1380 237.5C1380 165.979 1322.02 108 1250.5 108C1178.98 108 1121 165.979 1121 237.5C1121 309.021 1178.98 367 1250.5 367Z" fill="#D6CF6E" />
		<path fill-rule="evenodd" clip-rule="evenodd" d="M1251 307C1289.11 307 1320 276.108 1320 238C1320 199.892 1289.11 169 1251 169C1212.89 169 1182 199.892 1182 238C1182 276.108 1212.89 307 1251 307Z" fill="#F2AC57" />
		<path fill-rule="evenodd" clip-rule="evenodd" d="M1157 327.915L1340.33 145C1364.45 168.521 1379.43 201.375 1379.43 237.729C1379.43 309.249 1321.45 367.229 1249.93 367.229C1213.47 367.229 1180.53 352.162 1157 327.915H1157Z" fill="white" />
		<path fill-rule="evenodd" clip-rule="evenodd" d="M1110 108C1134.85 108 1155 87.8528 1155 63C1155 38.1472 1134.85 18 1110 18C1085.15 18 1065 38.1472 1065 63C1065 87.8528 1085.15 108 1110 108Z" fill="#D6CF6E" />
		<path fill-rule="evenodd" clip-rule="evenodd" d="M1342 667C1375.69 667 1403 639.689 1403 606C1403 572.311 1375.69 545 1342 545C1308.31 545 1281 572.311 1281 606C1281 639.689 1308.31 667 1342 667Z" fill="white" />
		<path fill-rule="evenodd" clip-rule="evenodd" d="M1295.97 565.97C1286.65 576.683 1281 590.682 1281 606C1281 639.689 1308.31 667 1342 667C1357.32 667 1371.32 661.354 1382.03 652.03L1295.97 565.97Z" fill="#2C2738" />
		<path fill-rule="evenodd" clip-rule="evenodd" d="M-1 240L172 413L-1 586L-1 240Z" fill="#14A38B" />
		<path fill-rule="evenodd" clip-rule="evenodd" d="M449 -50L-1.5 400.5V-50H449Z" fill="#D6CF6E" />
		<path fill-rule="evenodd" clip-rule="evenodd" d="M449 -50L159 240V-50H449Z" fill="#F2AC57" />
		<path fill-rule="evenodd" clip-rule="evenodd" d="M338.5 181C388.482 181 429 140.482 429 90.5C429 40.5182 388.482 0 338.5 0C288.518 0 248 40.5182 248 90.5C248 140.482 288.518 181 338.5 181Z" fill="#F2AC57" />
		<path fill-rule="evenodd" clip-rule="evenodd" d="M338.5 141C366.39 141 389 118.39 389 90.5C389 62.6096 366.39 40 338.5 40C310.61 40 288 62.6096 288 90.5C288 118.39 310.61 141 338.5 141Z" fill="#D6CF6E" />
		<path fill-rule="evenodd" clip-rule="evenodd" d="M404 27.7008L275.701 156C258.621 139.501 248 116.358 248 90.7348C248 40.6234 288.623 0 338.735 0C364.358 0 387.501 10.6211 404 27.7008Z" fill="white" />
		<path fill-rule="evenodd" clip-rule="evenodd" d="M-1.5 25.5V-50H159V186L-1.5 25.5Z" fill="white" />
		<path fill-rule="evenodd" clip-rule="evenodd" d="M79 137C97.5538 137 113 121.554 113 103C113 83.4462 97.5538 68 79 68C59.4462 68 44 83.4462 44 103C44 121.554 59.4462 137 79 137Z" fill="#F2AC57" />
		<path d="M1032.55 593.408C1031.28 593.408 1030.14 593.193 1029.12 592.762C1028.12 592.331 1027.26 591.708 1026.54 590.892C1025.83 590.076 1025.29 589.101 1024.9 587.968C1024.52 586.812 1024.33 585.52 1024.33 584.092C1024.33 582.664 1024.52 581.383 1024.9 580.25C1025.29 579.117 1025.83 578.153 1026.54 577.36C1027.26 576.544 1028.12 575.921 1029.12 575.49C1030.14 575.059 1031.28 574.844 1032.55 574.844C1033.82 574.844 1034.97 575.059 1035.99 575.49C1037.01 575.921 1037.87 576.544 1038.57 577.36C1039.3 578.153 1039.85 579.117 1040.24 580.25C1040.62 581.383 1040.82 582.664 1040.82 584.092C1040.82 585.52 1040.62 586.812 1040.24 587.968C1039.85 589.101 1039.3 590.076 1038.57 590.892C1037.87 591.708 1037.01 592.331 1035.99 592.762C1034.97 593.193 1033.82 593.408 1032.55 593.408ZM1032.55 589.906C1033.71 589.906 1034.62 589.555 1035.27 588.852C1035.93 588.149 1036.26 587.118 1036.26 585.758V582.46C1036.26 581.123 1035.93 580.103 1035.27 579.4C1034.62 578.697 1033.71 578.346 1032.55 578.346C1031.42 578.346 1030.53 578.697 1029.87 579.4C1029.21 580.103 1028.88 581.123 1028.88 582.46V585.758C1028.88 587.118 1029.21 588.149 1029.87 588.852C1030.53 589.555 1031.42 589.906 1032.55 589.906ZM1044.67 575.252H1049.03V578.176H1049.16C1049.48 577.156 1050.08 576.351 1050.96 575.762C1051.85 575.15 1052.88 574.844 1054.06 574.844C1056.32 574.844 1058.05 575.649 1059.23 577.258C1060.43 578.845 1061.03 581.123 1061.03 584.092C1061.03 587.084 1060.43 589.385 1059.23 590.994C1058.05 592.603 1056.32 593.408 1054.06 593.408C1052.88 593.408 1051.85 593.102 1050.96 592.49C1050.1 591.878 1049.5 591.062 1049.16 590.042H1049.03V599.8H1044.67V575.252ZM1052.66 589.804C1053.8 589.804 1054.72 589.43 1055.42 588.682C1056.12 587.934 1056.47 586.925 1056.47 585.656V582.596C1056.47 581.327 1056.12 580.318 1055.42 579.57C1054.72 578.799 1053.8 578.414 1052.66 578.414C1051.62 578.414 1050.75 578.675 1050.05 579.196C1049.37 579.717 1049.03 580.409 1049.03 581.27V586.914C1049.03 587.843 1049.37 588.557 1050.05 589.056C1050.75 589.555 1051.62 589.804 1052.66 589.804ZM1072.23 593.408C1070.92 593.408 1069.74 593.193 1068.7 592.762C1067.68 592.309 1066.81 591.685 1066.08 590.892C1065.38 590.076 1064.83 589.101 1064.45 587.968C1064.06 586.812 1063.87 585.52 1063.87 584.092C1063.87 582.687 1064.05 581.417 1064.41 580.284C1064.8 579.151 1065.34 578.187 1066.05 577.394C1066.75 576.578 1067.61 575.955 1068.63 575.524C1069.65 575.071 1070.81 574.844 1072.1 574.844C1073.48 574.844 1074.68 575.082 1075.7 575.558C1076.72 576.034 1077.56 576.68 1078.22 577.496C1078.88 578.312 1079.36 579.264 1079.68 580.352C1080.02 581.417 1080.19 582.562 1080.19 583.786V585.214H1068.39V585.656C1068.39 586.948 1068.76 587.991 1069.48 588.784C1070.21 589.555 1071.28 589.94 1072.71 589.94C1073.8 589.94 1074.68 589.713 1075.36 589.26C1076.07 588.807 1076.69 588.229 1077.23 587.526L1079.58 590.144C1078.85 591.164 1077.86 591.969 1076.59 592.558C1075.34 593.125 1073.89 593.408 1072.23 593.408ZM1072.17 578.108C1071.01 578.108 1070.09 578.493 1069.41 579.264C1068.73 580.035 1068.39 581.032 1068.39 582.256V582.528H1075.67V582.222C1075.67 580.998 1075.36 580.012 1074.75 579.264C1074.16 578.493 1073.3 578.108 1072.17 578.108ZM1084.02 593V575.252H1088.37V578.21H1088.54C1088.9 577.258 1089.47 576.465 1090.24 575.83C1091.04 575.173 1092.12 574.844 1093.51 574.844C1095.34 574.844 1096.75 575.445 1097.72 576.646C1098.7 577.847 1099.18 579.559 1099.18 581.78V593H1094.83V582.222C1094.83 580.953 1094.61 580.001 1094.15 579.366C1093.7 578.731 1092.95 578.414 1091.91 578.414C1091.45 578.414 1091.01 578.482 1090.58 578.618C1090.17 578.731 1089.8 578.913 1089.46 579.162C1089.14 579.389 1088.88 579.683 1088.68 580.046C1088.47 580.386 1088.37 580.794 1088.37 581.27V593H1084.02ZM1117.86 593.408C1116.16 593.408 1114.73 593.125 1113.57 592.558C1112.42 591.969 1111.4 591.164 1110.51 590.144L1113.17 587.56C1113.82 588.308 1114.54 588.897 1115.31 589.328C1116.1 589.759 1117.01 589.974 1118.03 589.974C1119.07 589.974 1119.82 589.793 1120.27 589.43C1120.75 589.067 1120.99 588.569 1120.99 587.934C1120.99 587.413 1120.82 587.005 1120.48 586.71C1120.16 586.393 1119.6 586.177 1118.81 586.064L1117.04 585.826C1115.11 585.577 1113.64 585.033 1112.62 584.194C1111.62 583.333 1111.13 582.086 1111.13 580.454C1111.13 579.593 1111.28 578.822 1111.6 578.142C1111.92 577.439 1112.37 576.85 1112.96 576.374C1113.55 575.875 1114.25 575.501 1115.07 575.252C1115.91 574.98 1116.84 574.844 1117.86 574.844C1118.72 574.844 1119.48 574.912 1120.14 575.048C1120.82 575.161 1121.43 575.343 1121.97 575.592C1122.52 575.819 1123.01 576.113 1123.47 576.476C1123.92 576.816 1124.36 577.201 1124.79 577.632L1122.24 580.182C1121.72 579.638 1121.1 579.185 1120.37 578.822C1119.65 578.459 1118.85 578.278 1117.99 578.278C1117.04 578.278 1116.35 578.448 1115.92 578.788C1115.51 579.128 1115.31 579.57 1115.31 580.114C1115.31 580.703 1115.48 581.157 1115.82 581.474C1116.18 581.769 1116.78 581.984 1117.62 582.12L1119.42 582.358C1123.25 582.902 1125.17 584.647 1125.17 587.594C1125.17 588.455 1124.99 589.249 1124.62 589.974C1124.28 590.677 1123.8 591.289 1123.16 591.81C1122.53 592.309 1121.76 592.705 1120.85 593C1119.97 593.272 1118.97 593.408 1117.86 593.408ZM1136.05 593.408C1134.78 593.408 1133.63 593.193 1132.61 592.762C1131.62 592.331 1130.76 591.708 1130.03 590.892C1129.33 590.076 1128.78 589.101 1128.4 587.968C1128.01 586.812 1127.82 585.52 1127.82 584.092C1127.82 582.664 1128.01 581.383 1128.4 580.25C1128.78 579.117 1129.33 578.153 1130.03 577.36C1130.76 576.544 1131.62 575.921 1132.61 575.49C1133.63 575.059 1134.78 574.844 1136.05 574.844C1137.32 574.844 1138.46 575.059 1139.48 575.49C1140.5 575.921 1141.36 576.544 1142.07 577.36C1142.79 578.153 1143.35 579.117 1143.73 580.25C1144.12 581.383 1144.31 582.664 1144.31 584.092C1144.31 585.52 1144.12 586.812 1143.73 587.968C1143.35 589.101 1142.79 590.076 1142.07 590.892C1141.36 591.708 1140.5 592.331 1139.48 592.762C1138.46 593.193 1137.32 593.408 1136.05 593.408ZM1136.05 589.906C1137.2 589.906 1138.11 589.555 1138.77 588.852C1139.43 588.149 1139.75 587.118 1139.75 585.758V582.46C1139.75 581.123 1139.43 580.103 1138.77 579.4C1138.11 578.697 1137.2 578.346 1136.05 578.346C1134.91 578.346 1134.02 578.697 1133.36 579.4C1132.7 580.103 1132.38 581.123 1132.38 582.46V585.758C1132.38 587.118 1132.7 588.149 1133.36 588.852C1134.02 589.555 1134.91 589.906 1136.05 589.906ZM1158.78 590.042H1158.61C1158.45 590.495 1158.23 590.926 1157.96 591.334C1157.71 591.719 1157.38 592.071 1156.97 592.388C1156.59 592.705 1156.11 592.955 1155.55 593.136C1155 593.317 1154.37 593.408 1153.64 593.408C1151.81 593.408 1150.4 592.807 1149.43 591.606C1148.45 590.405 1147.96 588.693 1147.96 586.472V575.252H1152.32V586.03C1152.32 587.254 1152.55 588.195 1153.03 588.852C1153.51 589.487 1154.27 589.804 1155.31 589.804C1155.74 589.804 1156.16 589.747 1156.57 589.634C1157 589.521 1157.37 589.351 1157.69 589.124C1158.01 588.875 1158.27 588.58 1158.47 588.24C1158.67 587.877 1158.78 587.458 1158.78 586.982V575.252H1163.13V593H1158.78V590.042ZM1168.16 593V575.252H1172.51V578.924H1172.68C1172.79 578.448 1172.96 577.995 1173.19 577.564C1173.44 577.111 1173.76 576.714 1174.14 576.374C1174.53 576.034 1174.98 575.762 1175.5 575.558C1176.04 575.354 1176.67 575.252 1177.37 575.252H1178.32V579.366H1176.96C1175.49 579.366 1174.38 579.581 1173.63 580.012C1172.88 580.443 1172.51 581.145 1172.51 582.12V593H1168.16ZM1188.34 593.408C1187.03 593.408 1185.86 593.193 1184.84 592.762C1183.82 592.331 1182.96 591.708 1182.26 590.892C1181.58 590.076 1181.05 589.101 1180.69 587.968C1180.33 586.812 1180.15 585.52 1180.15 584.092C1180.15 582.664 1180.33 581.383 1180.69 580.25C1181.05 579.117 1181.58 578.153 1182.26 577.36C1182.96 576.544 1183.82 575.921 1184.84 575.49C1185.86 575.059 1187.03 574.844 1188.34 574.844C1190.13 574.844 1191.61 575.241 1192.76 576.034C1193.94 576.827 1194.79 577.927 1195.31 579.332L1191.74 580.93C1191.54 580.182 1191.15 579.57 1190.59 579.094C1190.04 578.595 1189.29 578.346 1188.34 578.346C1187.12 578.346 1186.2 578.731 1185.59 579.502C1185 580.273 1184.7 581.281 1184.7 582.528V585.758C1184.7 587.005 1185 588.013 1185.59 588.784C1186.2 589.532 1187.12 589.906 1188.34 589.906C1189.38 589.906 1190.19 589.645 1190.76 589.124C1191.32 588.58 1191.76 587.911 1192.08 587.118L1195.41 588.716C1194.82 590.28 1193.93 591.459 1192.73 592.252C1191.53 593.023 1190.06 593.408 1188.34 593.408ZM1205.78 593.408C1204.46 593.408 1203.28 593.193 1202.24 592.762C1201.22 592.309 1200.35 591.685 1199.62 590.892C1198.92 590.076 1198.38 589.101 1197.99 587.968C1197.61 586.812 1197.41 585.52 1197.41 584.092C1197.41 582.687 1197.6 581.417 1197.96 580.284C1198.34 579.151 1198.89 578.187 1199.59 577.394C1200.29 576.578 1201.15 575.955 1202.17 575.524C1203.19 575.071 1204.35 574.844 1205.64 574.844C1207.02 574.844 1208.23 575.082 1209.25 575.558C1210.27 576.034 1211.1 576.68 1211.76 577.496C1212.42 578.312 1212.91 579.264 1213.22 580.352C1213.56 581.417 1213.73 582.562 1213.73 583.786V585.214H1201.94V585.656C1201.94 586.948 1202.3 587.991 1203.02 588.784C1203.75 589.555 1204.83 589.94 1206.25 589.94C1207.34 589.94 1208.23 589.713 1208.91 589.26C1209.61 588.807 1210.23 588.229 1210.78 587.526L1213.12 590.144C1212.4 591.164 1211.4 591.969 1210.13 592.558C1208.88 593.125 1207.43 593.408 1205.78 593.408ZM1205.71 578.108C1204.55 578.108 1203.64 578.493 1202.96 579.264C1202.28 580.035 1201.94 581.032 1201.94 582.256V582.528H1209.21V582.222C1209.21 580.998 1208.91 580.012 1208.29 579.264C1207.7 578.493 1206.84 578.108 1205.71 578.108Z" fill="white" />
		<path d="M610.166 323.408C608.126 323.408 606.392 323.045 604.964 322.32C603.559 321.595 602.346 320.643 601.326 319.464L604.352 316.54C605.168 317.492 606.075 318.217 607.072 318.716C608.092 319.215 609.214 319.464 610.438 319.464C611.821 319.464 612.863 319.169 613.566 318.58C614.269 317.968 614.62 317.152 614.62 316.132C614.62 315.339 614.393 314.693 613.94 314.194C613.487 313.695 612.637 313.333 611.39 313.106L609.146 312.766C604.409 312.018 602.04 309.717 602.04 305.864C602.04 304.799 602.233 303.835 602.618 302.974C603.026 302.113 603.604 301.376 604.352 300.764C605.1 300.152 605.995 299.687 607.038 299.37C608.103 299.03 609.305 298.86 610.642 298.86C612.433 298.86 613.997 299.155 615.334 299.744C616.671 300.333 617.816 301.206 618.768 302.362L615.708 305.252C615.119 304.527 614.405 303.937 613.566 303.484C612.727 303.031 611.673 302.804 610.404 302.804C609.112 302.804 608.137 303.053 607.48 303.552C606.845 304.028 606.528 304.708 606.528 305.592C606.528 306.499 606.789 307.167 607.31 307.598C607.831 308.029 608.67 308.346 609.826 308.55L612.036 308.958C614.439 309.389 616.207 310.159 617.34 311.27C618.496 312.358 619.074 313.888 619.074 315.86C619.074 316.993 618.87 318.025 618.462 318.954C618.077 319.861 617.499 320.654 616.728 321.334C615.98 321.991 615.051 322.501 613.94 322.864C612.852 323.227 611.594 323.408 610.166 323.408ZM640.889 323.408C639.325 323.408 637.908 323.147 636.639 322.626C635.37 322.105 634.282 321.323 633.375 320.28C632.491 319.237 631.8 317.957 631.301 316.438C630.802 314.919 630.553 313.151 630.553 311.134C630.553 309.139 630.802 307.383 631.301 305.864C631.8 304.323 632.491 303.031 633.375 301.988C634.282 300.945 635.37 300.163 636.639 299.642C637.908 299.121 639.325 298.86 640.889 298.86C642.453 298.86 643.87 299.121 645.139 299.642C646.408 300.163 647.496 300.945 648.403 301.988C649.31 303.031 650.001 304.323 650.477 305.864C650.976 307.383 651.225 309.139 651.225 311.134C651.225 313.151 650.976 314.919 650.477 316.438C650.001 317.957 649.31 319.237 648.403 320.28C647.496 321.323 646.408 322.105 645.139 322.626C643.87 323.147 642.453 323.408 640.889 323.408ZM640.889 319.43C642.589 319.43 643.938 318.863 644.935 317.73C645.955 316.597 646.465 315.01 646.465 312.97V309.298C646.465 307.258 645.955 305.671 644.935 304.538C643.938 303.405 642.589 302.838 640.889 302.838C639.189 302.838 637.829 303.405 636.809 304.538C635.812 305.671 635.313 307.258 635.313 309.298V312.97C635.313 315.01 635.812 316.597 636.809 317.73C637.829 318.863 639.189 319.43 640.889 319.43ZM663.778 323V299.268H668.266V319.022H677.616V323H663.778ZM688.523 323V319.396H691.651V302.872H688.523V299.268H699.301V302.872H696.139V319.396H699.301V323H688.523ZM711.886 299.268H720.522C722.063 299.268 723.457 299.517 724.704 300.016C725.973 300.515 727.05 301.263 727.934 302.26C728.84 303.235 729.532 304.47 730.008 305.966C730.506 307.439 730.756 309.162 730.756 311.134C730.756 313.106 730.506 314.84 730.008 316.336C729.532 317.809 728.84 319.045 727.934 320.042C727.05 321.017 725.973 321.753 724.704 322.252C723.457 322.751 722.063 323 720.522 323H711.886V299.268ZM720.522 319.022C722.199 319.022 723.525 318.535 724.5 317.56C725.497 316.563 725.996 315.044 725.996 313.004V309.264C725.996 307.224 725.497 305.717 724.5 304.742C723.525 303.745 722.199 303.246 720.522 303.246H716.374V319.022H720.522ZM772.452 299.268V316.336C772.452 317.401 772.271 318.365 771.908 319.226C771.568 320.087 771.07 320.824 770.412 321.436C769.778 322.048 768.996 322.524 768.066 322.864C767.137 323.204 766.094 323.374 764.938 323.374C762.74 323.374 761.028 322.807 759.804 321.674C758.58 320.518 757.798 318.988 757.458 317.084L761.606 316.234C761.81 317.254 762.173 318.047 762.694 318.614C763.238 319.158 763.975 319.43 764.904 319.43C765.788 319.43 766.514 319.158 767.08 318.614C767.67 318.047 767.964 317.186 767.964 316.03V302.94H760.484V299.268H772.452ZM793.268 323.408C791.228 323.408 789.494 323.045 788.066 322.32C786.66 321.595 785.448 320.643 784.428 319.464L787.454 316.54C788.27 317.492 789.176 318.217 790.174 318.716C791.194 319.215 792.316 319.464 793.54 319.464C794.922 319.464 795.965 319.169 796.668 318.58C797.37 317.968 797.722 317.152 797.722 316.132C797.722 315.339 797.495 314.693 797.042 314.194C796.588 313.695 795.738 313.333 794.492 313.106L792.248 312.766C787.51 312.018 785.142 309.717 785.142 305.864C785.142 304.799 785.334 303.835 785.72 302.974C786.128 302.113 786.706 301.376 787.454 300.764C788.202 300.152 789.097 299.687 790.14 299.37C791.205 299.03 792.406 298.86 793.744 298.86C795.534 298.86 797.098 299.155 798.436 299.744C799.773 300.333 800.918 301.206 801.87 302.362L798.81 305.252C798.22 304.527 797.506 303.937 796.668 303.484C795.829 303.031 794.775 302.804 793.506 302.804C792.214 302.804 791.239 303.053 790.582 303.552C789.947 304.028 789.63 304.708 789.63 305.592C789.63 306.499 789.89 307.167 790.412 307.598C790.933 308.029 791.772 308.346 792.928 308.55L795.138 308.958C797.54 309.389 799.308 310.159 800.442 311.27C801.598 312.358 802.176 313.888 802.176 315.86C802.176 316.993 801.972 318.025 801.564 318.954C801.178 319.861 800.6 320.654 799.83 321.334C799.082 321.991 798.152 322.501 797.042 322.864C795.954 323.227 794.696 323.408 793.268 323.408Z" fill="white" />
		<path d="M132.276 583.854H136.526L140.946 593H145.944L141.082 583.344C144.006 582.358 145.502 579.876 145.502 576.612C145.502 572.124 142.816 569.268 138.498 569.268H127.788V593H132.276V583.854ZM132.276 580.08V573.178H138.056C139.79 573.178 140.844 574.096 140.844 575.83V577.394C140.844 579.128 139.79 580.08 138.056 580.08H132.276ZM156.77 593.408C160.068 593.408 162.652 592.15 164.114 590.144L161.768 587.526C160.68 588.92 159.388 589.94 157.246 589.94C154.39 589.94 152.928 588.206 152.928 585.656V585.214H164.726V583.786C164.726 578.924 162.176 574.844 156.634 574.844C151.432 574.844 148.406 578.482 148.406 584.092C148.406 589.77 151.534 593.408 156.77 593.408ZM156.702 578.108C158.946 578.108 160.204 579.774 160.204 582.222V582.528H152.928V582.256C152.928 579.808 154.424 578.108 156.702 578.108ZM177.232 593L183.182 575.252H179.034L176.62 582.902L174.886 589.226H174.648L172.914 582.902L170.432 575.252H166.148L172.064 593H177.232ZM192.859 593.408C197.959 593.408 201.121 589.804 201.121 584.092C201.121 578.414 197.959 574.844 192.859 574.844C187.793 574.844 184.631 578.414 184.631 584.092C184.631 589.804 187.793 593.408 192.859 593.408ZM192.859 589.906C190.615 589.906 189.187 588.444 189.187 585.758V582.46C189.187 579.808 190.615 578.346 192.859 578.346C195.137 578.346 196.565 579.808 196.565 582.46V585.758C196.565 588.444 195.137 589.906 192.859 589.906ZM211.677 593V589.532H209.331V567.84H204.979V588.716C204.979 591.436 206.373 593 209.331 593H211.677ZM225.581 593H229.933V575.252H225.581V586.982C225.581 588.886 223.847 589.804 222.113 589.804C220.039 589.804 219.121 588.478 219.121 586.03V575.252H214.769V586.472C214.769 590.892 216.809 593.408 220.447 593.408C223.371 593.408 224.799 591.81 225.411 590.042H225.581V593ZM240.503 593H243.631V589.532H240.265V578.72H243.903V575.252H240.265V570.39H236.355V573.416C236.355 574.64 235.947 575.252 234.655 575.252H233.295V578.72H235.913V588.478C235.913 591.368 237.511 593 240.503 593ZM249.854 572.668C251.622 572.668 252.404 571.75 252.404 570.492V569.812C252.404 568.554 251.622 567.636 249.854 567.636C248.052 567.636 247.304 568.554 247.304 569.812V570.492C247.304 571.75 248.052 572.668 249.854 572.668ZM247.678 593H252.03V575.252H247.678V593ZM264.113 593.408C269.213 593.408 272.375 589.804 272.375 584.092C272.375 578.414 269.213 574.844 264.113 574.844C259.047 574.844 255.885 578.414 255.885 584.092C255.885 589.804 259.047 593.408 264.113 593.408ZM264.113 589.906C261.869 589.906 260.441 588.444 260.441 585.758V582.46C260.441 579.808 261.869 578.346 264.113 578.346C266.391 578.346 267.819 579.808 267.819 582.46V585.758C267.819 588.444 266.391 589.906 264.113 589.906ZM280.585 593V581.27C280.585 579.366 282.319 578.414 284.121 578.414C286.195 578.414 287.045 579.706 287.045 582.222V593H291.397V581.78C291.397 577.36 289.357 574.844 285.719 574.844C282.965 574.844 281.469 576.306 280.755 578.21H280.585V575.252H276.233V593H280.585ZM300.607 593.408C303.259 593.408 305.197 592.218 305.775 589.94H305.979C306.251 591.776 307.407 593 309.277 593H311.691V589.532H309.923V581.168C309.923 577.122 307.373 574.844 302.579 574.844C299.009 574.844 296.935 576.204 295.643 578.244L298.227 580.556C299.077 579.332 300.233 578.312 302.273 578.312C304.585 578.312 305.571 579.468 305.571 581.44V582.732H302.545C297.717 582.732 294.963 584.534 294.963 588.172C294.963 591.334 297.003 593.408 300.607 593.408ZM302.069 590.246C300.369 590.246 299.383 589.532 299.383 588.104V587.526C299.383 586.132 300.505 585.35 302.783 585.35H305.571V587.696C305.571 589.362 304.007 590.246 302.069 590.246ZM319.565 593V582.12C319.565 580.182 321.095 579.366 324.019 579.366H325.379V575.252H324.427C321.605 575.252 320.177 577.054 319.735 578.924H319.565V575.252H315.213V593H319.565ZM336.613 584.636L335.389 589.124H335.185L334.029 584.636L330.935 575.252H326.617L332.975 593.85L332.159 596.332H328.963V599.8H331.581C334.505 599.8 335.763 598.712 336.647 596.162L343.787 575.252H339.707L336.613 584.636ZM365.708 593H370.06V567.84H365.708V578.176H365.538C364.926 576.136 362.988 574.844 360.642 574.844C356.188 574.844 353.706 578.176 353.706 584.092C353.706 590.042 356.188 593.408 360.642 593.408C362.988 593.408 364.892 592.048 365.538 590.042H365.708V593ZM362.036 589.804C359.792 589.804 358.262 588.172 358.262 585.656V582.596C358.262 580.08 359.792 578.414 362.036 578.414C364.11 578.414 365.708 579.536 365.708 581.27V586.914C365.708 588.75 364.11 589.804 362.036 589.804ZM382.253 593.408C385.551 593.408 388.135 592.15 389.597 590.144L387.251 587.526C386.163 588.92 384.871 589.94 382.729 589.94C379.873 589.94 378.411 588.206 378.411 585.656V585.214H390.209V583.786C390.209 578.924 387.659 574.844 382.117 574.844C376.915 574.844 373.889 578.482 373.889 584.092C373.889 589.77 377.017 593.408 382.253 593.408ZM382.185 578.108C384.429 578.108 385.687 579.774 385.687 582.222V582.528H378.411V582.256C378.411 579.808 379.907 578.108 382.185 578.108ZM399.851 593.408C404.271 593.408 407.161 591.028 407.161 587.594C407.161 584.636 405.291 582.902 401.415 582.358L399.613 582.12C397.947 581.848 397.301 581.304 397.301 580.114C397.301 579.026 398.117 578.278 399.987 578.278C401.721 578.278 403.217 579.094 404.237 580.182L406.787 577.632C405.087 575.864 403.319 574.844 399.851 574.844C395.805 574.844 393.119 577.02 393.119 580.454C393.119 583.684 395.227 585.35 399.035 585.826L400.803 586.064C402.367 586.268 402.979 586.914 402.979 587.934C402.979 589.192 402.095 589.974 400.021 589.974C398.015 589.974 396.451 589.056 395.159 587.56L392.507 590.144C394.275 592.184 396.485 593.408 399.851 593.408ZM413.18 572.668C414.948 572.668 415.73 571.75 415.73 570.492V569.812C415.73 568.554 414.948 567.636 413.18 567.636C411.378 567.636 410.63 568.554 410.63 569.812V570.492C410.63 571.75 411.378 572.668 413.18 572.668ZM411.004 593H415.356V575.252H411.004V593ZM436.415 594.496C436.415 591.3 434.545 589.43 430.193 589.43H425.433C423.869 589.43 423.121 588.988 423.121 588.104C423.121 587.322 423.699 586.812 424.379 586.506C425.161 586.71 426.079 586.812 427.099 586.812C431.927 586.812 434.443 584.432 434.443 580.862C434.443 578.686 433.525 576.952 431.689 575.932V575.456H435.463V572.124H432.709C431.077 572.124 430.193 572.974 430.193 574.708V575.286C429.309 574.98 428.187 574.844 427.099 574.844C422.305 574.844 419.755 577.258 419.755 580.862C419.755 583.208 420.843 585.044 422.985 586.03V586.166C421.285 586.54 419.721 587.458 419.721 589.294C419.721 590.722 420.537 591.878 421.999 592.252V592.626C420.027 592.932 418.837 594.054 418.837 596.026C418.837 598.644 421.115 600.208 427.099 600.208C433.899 600.208 436.415 598.202 436.415 594.496ZM432.335 595.006C432.335 596.502 431.077 597.216 428.255 597.216H426.079C423.359 597.216 422.339 596.4 422.339 595.04C422.339 594.326 422.611 593.68 423.257 593.204H429.309C431.519 593.204 432.335 593.884 432.335 595.006ZM427.099 583.854C425.025 583.854 423.903 582.902 423.903 581.134V580.556C423.903 578.754 425.025 577.836 427.099 577.836C429.173 577.836 430.295 578.754 430.295 580.556V581.134C430.295 582.902 429.173 583.854 427.099 583.854ZM443.28 593V581.27C443.28 579.366 445.014 578.414 446.816 578.414C448.89 578.414 449.74 579.706 449.74 582.222V593H454.092V581.78C454.092 577.36 452.052 574.844 448.414 574.844C445.66 574.844 444.164 576.306 443.45 578.21H443.28V575.252H438.928V593H443.28ZM472.766 593.408C477.186 593.408 480.076 591.028 480.076 587.594C480.076 584.636 478.206 582.902 474.33 582.358L472.528 582.12C470.862 581.848 470.216 581.304 470.216 580.114C470.216 579.026 471.032 578.278 472.902 578.278C474.636 578.278 476.132 579.094 477.152 580.182L479.702 577.632C478.002 575.864 476.234 574.844 472.766 574.844C468.72 574.844 466.034 577.02 466.034 580.454C466.034 583.684 468.142 585.35 471.95 585.826L473.718 586.064C475.282 586.268 475.894 586.914 475.894 587.934C475.894 589.192 475.01 589.974 472.936 589.974C470.93 589.974 469.366 589.056 468.074 587.56L465.422 590.144C467.19 592.184 469.4 593.408 472.766 593.408ZM491.306 584.636L490.082 589.124H489.878L488.722 584.636L485.628 575.252H481.31L487.668 593.85L486.852 596.332H483.656V599.8H486.274C489.198 599.8 490.456 598.712 491.34 596.162L498.48 575.252H494.4L491.306 584.636ZM506.898 593.408C511.318 593.408 514.208 591.028 514.208 587.594C514.208 584.636 512.338 582.902 508.462 582.358L506.66 582.12C504.994 581.848 504.348 581.304 504.348 580.114C504.348 579.026 505.164 578.278 507.034 578.278C508.768 578.278 510.264 579.094 511.284 580.182L513.834 577.632C512.134 575.864 510.366 574.844 506.898 574.844C502.852 574.844 500.166 577.02 500.166 580.454C500.166 583.684 502.274 585.35 506.082 585.826L507.85 586.064C509.414 586.268 510.026 586.914 510.026 587.934C510.026 589.192 509.142 589.974 507.068 589.974C505.062 589.974 503.498 589.056 502.206 587.56L499.554 590.144C501.322 592.184 503.532 593.408 506.898 593.408ZM523.328 593H526.456V589.532H523.09V578.72H526.728V575.252H523.09V570.39H519.18V573.416C519.18 574.64 518.772 575.252 517.48 575.252H516.12V578.72H518.738V588.478C518.738 591.368 520.336 593 523.328 593ZM537.544 593.408C540.842 593.408 543.426 592.15 544.888 590.144L542.542 587.526C541.454 588.92 540.162 589.94 538.02 589.94C535.164 589.94 533.702 588.206 533.702 585.656V585.214H545.5V583.786C545.5 578.924 542.95 574.844 537.408 574.844C532.206 574.844 529.18 578.482 529.18 584.092C529.18 589.77 532.308 593.408 537.544 593.408ZM537.476 578.108C539.72 578.108 540.978 579.774 540.978 582.222V582.528H533.702V582.256C533.702 579.808 535.198 578.108 537.476 578.108ZM553.681 593V581.27C553.681 579.366 555.312 578.414 556.979 578.414C558.917 578.414 559.835 579.672 559.835 582.222V593H564.187V581.27C564.187 579.366 565.785 578.414 567.485 578.414C569.423 578.414 570.341 579.672 570.341 582.222V593H574.693V581.78C574.693 577.36 572.721 574.844 569.253 574.844C566.431 574.844 564.459 576.442 563.812 578.414H563.745C562.895 576.034 561.025 574.844 558.611 574.844C555.959 574.844 554.531 576.34 553.851 578.21H553.681V575.252H549.329V593H553.681ZM587.545 593H591.897V587.594L594.243 585.044L598.799 593H603.967L597.201 582.12L603.321 575.252H598.391L594.413 579.808L592.067 583.004H591.897V567.84H587.545V593ZM608.813 572.668C610.581 572.668 611.363 571.75 611.363 570.492V569.812C611.363 568.554 610.581 567.636 608.813 567.636C607.011 567.636 606.263 568.554 606.263 569.812V570.492C606.263 571.75 607.011 572.668 608.813 572.668ZM606.637 593H610.989V575.252H606.637V593ZM621.576 593H624.704V589.532H621.338V578.72H624.976V575.252H621.338V570.39H617.428V573.416C617.428 574.64 617.02 575.252 615.728 575.252H614.368V578.72H616.986V588.478C616.986 591.368 618.584 593 621.576 593ZM637.67 593H642.022V578.686H645.66V575.252H642.022V571.308H645.66V567.84H642.566C639.37 567.84 637.67 569.574 637.67 572.702V575.252H635.052V578.686H637.67V593ZM655.577 593.408C660.677 593.408 663.839 589.804 663.839 584.092C663.839 578.414 660.677 574.844 655.577 574.844C650.511 574.844 647.349 578.414 647.349 584.092C647.349 589.804 650.511 593.408 655.577 593.408ZM655.577 589.906C653.333 589.906 651.905 588.444 651.905 585.758V582.46C651.905 579.808 653.333 578.346 655.577 578.346C657.855 578.346 659.283 579.808 659.283 582.46V585.758C659.283 588.444 657.855 589.906 655.577 589.906ZM672.05 593V582.12C672.05 580.182 673.58 579.366 676.504 579.366H677.864V575.252H676.912C674.09 575.252 672.662 577.054 672.22 578.924H672.05V575.252H667.698V593H672.05ZM127.516 637H131.868V634.042H132.004C132.684 636.048 134.554 637.408 136.9 637.408C141.388 637.408 143.87 634.042 143.87 628.092C143.87 622.176 141.388 618.844 136.9 618.844C134.554 618.844 132.65 620.136 132.004 622.176H131.868V611.84H127.516V637ZM135.506 633.804C133.432 633.804 131.868 632.75 131.868 630.914V625.27C131.868 623.536 133.432 622.414 135.506 622.414C137.75 622.414 139.314 624.08 139.314 626.596V629.656C139.314 632.172 137.75 633.804 135.506 633.804ZM158.511 637H162.863V619.252H158.511V630.982C158.511 632.886 156.777 633.804 155.043 633.804C152.969 633.804 152.051 632.478 152.051 630.03V619.252H147.699V630.472C147.699 634.892 149.739 637.408 153.377 637.408C156.301 637.408 157.729 635.81 158.341 634.042H158.511V637ZM173.705 637.408C178.125 637.408 181.015 635.028 181.015 631.594C181.015 628.636 179.145 626.902 175.269 626.358L173.467 626.12C171.801 625.848 171.155 625.304 171.155 624.114C171.155 623.026 171.971 622.278 173.841 622.278C175.575 622.278 177.071 623.094 178.091 624.182L180.641 621.632C178.941 619.864 177.173 618.844 173.705 618.844C169.659 618.844 166.973 621.02 166.973 624.454C166.973 627.684 169.081 629.35 172.889 629.826L174.657 630.064C176.221 630.268 176.833 630.914 176.833 631.934C176.833 633.192 175.949 633.974 173.875 633.974C171.869 633.974 170.305 633.056 169.013 631.56L166.361 634.144C168.129 636.184 170.339 637.408 173.705 637.408ZM192.245 628.636L191.021 633.124H190.817L189.661 628.636L186.567 619.252H182.249L188.607 637.85L187.791 640.332H184.595V643.8H187.213C190.137 643.8 191.395 642.712 192.279 640.162L199.419 619.252H195.339L192.245 628.636ZM221.341 637H225.693V611.84H221.341V622.176H221.171C220.559 620.136 218.621 618.844 216.275 618.844C211.821 618.844 209.339 622.176 209.339 628.092C209.339 634.042 211.821 637.408 216.275 637.408C218.621 637.408 220.525 636.048 221.171 634.042H221.341V637ZM217.669 633.804C215.425 633.804 213.895 632.172 213.895 629.656V626.596C213.895 624.08 215.425 622.414 217.669 622.414C219.743 622.414 221.341 623.536 221.341 625.27V630.914C221.341 632.75 219.743 633.804 217.669 633.804ZM237.885 637.408C241.183 637.408 243.767 636.15 245.229 634.144L242.883 631.526C241.795 632.92 240.503 633.94 238.361 633.94C235.505 633.94 234.043 632.206 234.043 629.656V629.214H245.841V627.786C245.841 622.924 243.291 618.844 237.749 618.844C232.547 618.844 229.521 622.482 229.521 628.092C229.521 633.77 232.649 637.408 237.885 637.408ZM237.817 622.108C240.061 622.108 241.319 623.774 241.319 626.222V626.528H234.043V626.256C234.043 623.808 235.539 622.108 237.817 622.108ZM255.484 637.408C259.904 637.408 262.794 635.028 262.794 631.594C262.794 628.636 260.924 626.902 257.048 626.358L255.246 626.12C253.58 625.848 252.934 625.304 252.934 624.114C252.934 623.026 253.75 622.278 255.62 622.278C257.354 622.278 258.85 623.094 259.87 624.182L262.42 621.632C260.72 619.864 258.952 618.844 255.484 618.844C251.438 618.844 248.752 621.02 248.752 624.454C248.752 627.684 250.86 629.35 254.668 629.826L256.436 630.064C258 630.268 258.612 630.914 258.612 631.934C258.612 633.192 257.728 633.974 255.654 633.974C253.648 633.974 252.084 633.056 250.792 631.56L248.14 634.144C249.908 636.184 252.118 637.408 255.484 637.408ZM268.813 616.668C270.581 616.668 271.363 615.75 271.363 614.492V613.812C271.363 612.554 270.581 611.636 268.813 611.636C267.011 611.636 266.263 612.554 266.263 613.812V614.492C266.263 615.75 267.011 616.668 268.813 616.668ZM266.637 637H270.989V619.252H266.637V637ZM292.048 638.496C292.048 635.3 290.178 633.43 285.826 633.43H281.066C279.502 633.43 278.754 632.988 278.754 632.104C278.754 631.322 279.332 630.812 280.012 630.506C280.794 630.71 281.712 630.812 282.732 630.812C287.56 630.812 290.076 628.432 290.076 624.862C290.076 622.686 289.158 620.952 287.322 619.932V619.456H291.096V616.124H288.342C286.71 616.124 285.826 616.974 285.826 618.708V619.286C284.942 618.98 283.82 618.844 282.732 618.844C277.938 618.844 275.388 621.258 275.388 624.862C275.388 627.208 276.476 629.044 278.618 630.03V630.166C276.918 630.54 275.354 631.458 275.354 633.294C275.354 634.722 276.17 635.878 277.632 636.252V636.626C275.66 636.932 274.47 638.054 274.47 640.026C274.47 642.644 276.748 644.208 282.732 644.208C289.532 644.208 292.048 642.202 292.048 638.496ZM287.968 639.006C287.968 640.502 286.71 641.216 283.888 641.216H281.712C278.992 641.216 277.972 640.4 277.972 639.04C277.972 638.326 278.244 637.68 278.89 637.204H284.942C287.152 637.204 287.968 637.884 287.968 639.006ZM282.732 627.854C280.658 627.854 279.536 626.902 279.536 625.134V624.556C279.536 622.754 280.658 621.836 282.732 621.836C284.806 621.836 285.928 622.754 285.928 624.556V625.134C285.928 626.902 284.806 627.854 282.732 627.854ZM298.913 637V625.27C298.913 623.366 300.647 622.414 302.449 622.414C304.523 622.414 305.373 623.706 305.373 626.222V637H309.725V625.78C309.725 621.36 307.685 618.844 304.047 618.844C301.293 618.844 299.797 620.306 299.083 622.21H298.913V619.252H294.561V637H298.913ZM321.723 637.408C325.021 637.408 327.605 636.15 329.067 634.144L326.721 631.526C325.633 632.92 324.341 633.94 322.199 633.94C319.343 633.94 317.881 632.206 317.881 629.656V629.214H329.679V627.786C329.679 622.924 327.129 618.844 321.587 618.844C316.385 618.844 313.359 622.482 313.359 628.092C313.359 633.77 316.487 637.408 321.723 637.408ZM321.655 622.108C323.899 622.108 325.157 623.774 325.157 626.222V626.528H317.881V626.256C317.881 623.808 319.377 622.108 321.655 622.108ZM337.86 637V626.12C337.86 624.182 339.39 623.366 342.314 623.366H343.674V619.252H342.722C339.9 619.252 338.472 621.054 338.03 622.924H337.86V619.252H333.508V637H337.86ZM352.67 637.408C357.09 637.408 359.98 635.028 359.98 631.594C359.98 628.636 358.11 626.902 354.234 626.358L352.432 626.12C350.766 625.848 350.12 625.304 350.12 624.114C350.12 623.026 350.936 622.278 352.806 622.278C354.54 622.278 356.036 623.094 357.056 624.182L359.606 621.632C357.906 619.864 356.138 618.844 352.67 618.844C348.624 618.844 345.938 621.02 345.938 624.454C345.938 627.684 348.046 629.35 351.854 629.826L353.622 630.064C355.186 630.268 355.798 630.914 355.798 631.934C355.798 633.192 354.914 633.974 352.84 633.974C350.834 633.974 349.27 633.056 347.978 631.56L345.326 634.144C347.094 636.184 349.304 637.408 352.67 637.408Z" fill="white" />
		<path opacity="0.56" d="M130.992 541.468H134.492L138.132 549H142.248L138.244 541.048C140.652 540.236 141.884 538.192 141.884 535.504C141.884 531.808 139.672 529.456 136.116 529.456H127.296V549H130.992V541.468ZM130.992 538.36V532.676H135.752C137.18 532.676 138.048 533.432 138.048 534.86V536.148C138.048 537.576 137.18 538.36 135.752 538.36H130.992ZM151.164 549.336C153.88 549.336 156.008 548.3 157.212 546.648L155.28 544.492C154.384 545.64 153.32 546.48 151.556 546.48C149.204 546.48 148 545.052 148 542.952V542.588H157.716V541.412C157.716 537.408 155.616 534.048 151.052 534.048C146.768 534.048 144.276 537.044 144.276 541.664C144.276 546.34 146.852 549.336 151.164 549.336ZM151.108 536.736C152.956 536.736 153.992 538.108 153.992 540.124V540.376H148V540.152C148 538.136 149.232 536.736 151.108 536.736ZM168.015 549L172.915 534.384H169.499L167.511 540.684L166.083 545.892H165.887L164.459 540.684L162.415 534.384H158.887L163.759 549H168.015ZM187.402 549H191.798L184.434 537.604L191.238 529.456H186.982L182.138 535.42L179.366 539.088H179.226V529.456H175.53V549H179.226V543.232L181.83 540.152L187.402 549ZM196.075 532.256C197.531 532.256 198.175 531.5 198.175 530.464V529.904C198.175 528.868 197.531 528.112 196.075 528.112C194.591 528.112 193.975 528.868 193.975 529.904V530.464C193.975 531.5 194.591 532.256 196.075 532.256ZM194.283 549H197.867V534.384H194.283V549ZM206.585 549H209.161V546.144H206.389V537.24H209.385V534.384H206.389V530.38H203.169V532.872C203.169 533.88 202.833 534.384 201.769 534.384H200.649V537.24H202.805V545.276C202.805 547.656 204.121 549 206.585 549ZM233.288 542.252V538.696H225.28V542.252H233.288ZM251.003 549L253.495 538.668L254.755 533.516H254.811L256.015 538.668L258.507 549H262.679L267.355 529.456H263.827L261.839 538.836L260.607 544.828H260.523L259.151 538.836L256.911 529.456H252.823L250.583 538.836L249.183 544.828H249.099L247.895 538.836L245.963 529.456H242.267L246.803 549H251.003ZM275.468 549.336C278.184 549.336 280.312 548.3 281.516 546.648L279.584 544.492C278.688 545.64 277.624 546.48 275.86 546.48C273.508 546.48 272.304 545.052 272.304 542.952V542.588H282.02V541.412C282.02 537.408 279.92 534.048 275.356 534.048C271.072 534.048 268.58 537.044 268.58 541.664C268.58 546.34 271.156 549.336 275.468 549.336ZM275.412 536.736C277.26 536.736 278.296 538.108 278.296 540.124V540.376H272.304V540.152C272.304 538.136 273.536 536.736 275.412 536.736ZM285.174 549H288.758V546.564H288.87C289.43 548.216 290.97 549.336 292.902 549.336C296.598 549.336 298.642 546.564 298.642 541.664C298.642 536.792 296.598 534.048 292.902 534.048C290.97 534.048 289.402 535.112 288.87 536.792H288.758V528.28H285.174V549ZM291.754 546.368C290.046 546.368 288.758 545.5 288.758 543.988V539.34C288.758 537.912 290.046 536.988 291.754 536.988C293.602 536.988 294.89 538.36 294.89 540.432V542.952C294.89 545.024 293.602 546.368 291.754 546.368ZM301.963 549H305.547V544.548L307.479 542.448L311.231 549H315.487L309.915 540.04L314.955 534.384H310.895L307.619 538.136L305.687 540.768H305.547V528.28H301.963V549ZM326.148 549H329.732V534.384H326.148V544.044C326.148 545.612 324.72 546.368 323.292 546.368C321.584 546.368 320.828 545.276 320.828 543.26V534.384H317.244V543.624C317.244 547.264 318.924 549.336 321.92 549.336C324.328 549.336 325.504 548.02 326.008 546.564H326.148V549ZM339.389 549V546.144H337.457V528.28H333.873V545.472C333.873 547.712 335.021 549 337.457 549H339.389ZM344.477 549.308C346.017 549.308 346.717 548.44 346.717 547.264V546.76C346.717 545.556 346.017 544.688 344.477 544.688C342.965 544.688 342.237 545.556 342.237 546.76V547.264C342.237 548.44 342.965 549.308 344.477 549.308ZM350.968 549H358.08C363.176 549 366.508 545.724 366.508 539.228C366.508 532.732 363.176 529.456 358.08 529.456H350.968V549ZM354.664 545.724V532.732H358.08C360.824 532.732 362.588 534.356 362.588 537.688V540.768C362.588 544.1 360.824 545.724 358.08 545.724H354.664ZM375.957 549.336C378.673 549.336 380.801 548.3 382.005 546.648L380.073 544.492C379.177 545.64 378.113 546.48 376.349 546.48C373.997 546.48 372.793 545.052 372.793 542.952V542.588H382.509V541.412C382.509 537.408 380.409 534.048 375.845 534.048C371.561 534.048 369.069 537.044 369.069 541.664C369.069 546.34 371.645 549.336 375.957 549.336ZM375.901 536.736C377.749 536.736 378.785 538.108 378.785 540.124V540.376H372.793V540.152C372.793 538.136 374.025 536.736 375.901 536.736ZM390.45 549.336C394.09 549.336 396.47 547.376 396.47 544.548C396.47 542.112 394.93 540.684 391.738 540.236L390.254 540.04C388.882 539.816 388.35 539.368 388.35 538.388C388.35 537.492 389.022 536.876 390.562 536.876C391.99 536.876 393.222 537.548 394.062 538.444L396.162 536.344C394.762 534.888 393.306 534.048 390.45 534.048C387.118 534.048 384.906 535.84 384.906 538.668C384.906 541.328 386.642 542.7 389.778 543.092L391.234 543.288C392.522 543.456 393.026 543.988 393.026 544.828C393.026 545.864 392.298 546.508 390.59 546.508C388.938 546.508 387.65 545.752 386.586 544.52L384.402 546.648C385.858 548.328 387.678 549.336 390.45 549.336ZM401.427 532.256C402.883 532.256 403.527 531.5 403.527 530.464V529.904C403.527 528.868 402.883 528.112 401.427 528.112C399.943 528.112 399.327 528.868 399.327 529.904V530.464C399.327 531.5 399.943 532.256 401.427 532.256ZM399.635 549H403.219V534.384H399.635V549ZM420.561 550.232C420.561 547.6 419.021 546.06 415.437 546.06H411.517C410.229 546.06 409.613 545.696 409.613 544.968C409.613 544.324 410.089 543.904 410.649 543.652C411.293 543.82 412.049 543.904 412.889 543.904C416.865 543.904 418.937 541.944 418.937 539.004C418.937 537.212 418.181 535.784 416.669 534.944V534.552H419.777V531.808H417.509C416.165 531.808 415.437 532.508 415.437 533.936V534.412C414.709 534.16 413.785 534.048 412.889 534.048C408.941 534.048 406.841 536.036 406.841 539.004C406.841 540.936 407.737 542.448 409.501 543.26V543.372C408.101 543.68 406.813 544.436 406.813 545.948C406.813 547.124 407.485 548.076 408.689 548.384V548.692C407.065 548.944 406.085 549.868 406.085 551.492C406.085 553.648 407.961 554.936 412.889 554.936C418.489 554.936 420.561 553.284 420.561 550.232ZM417.201 550.652C417.201 551.884 416.165 552.472 413.841 552.472H412.049C409.809 552.472 408.969 551.8 408.969 550.68C408.969 550.092 409.193 549.56 409.725 549.168H414.709C416.529 549.168 417.201 549.728 417.201 550.652ZM412.889 541.468C411.181 541.468 410.257 540.684 410.257 539.228V538.752C410.257 537.268 411.181 536.512 412.889 536.512C414.597 536.512 415.521 537.268 415.521 538.752V539.228C415.521 540.684 414.597 541.468 412.889 541.468ZM426.215 549V539.34C426.215 537.772 427.643 536.988 429.127 536.988C430.835 536.988 431.535 538.052 431.535 540.124V549H435.119V539.76C435.119 536.12 433.439 534.048 430.443 534.048C428.175 534.048 426.943 535.252 426.355 536.82H426.215V534.384H422.631V549H426.215Z" fill="white" />
		<path fill-rule="evenodd" clip-rule="evenodd" d="M470 369.683V339.841H507.987C496.426 371.858 493.85 395.07 501.465 410.929L501.815 411.612C512.967 432.065 533.87 435.035 557.102 422.614C564.399 418.713 567.134 409.666 563.212 402.408C559.29 395.149 550.195 392.428 542.898 396.329C533.101 401.567 530.52 401.401 528.384 397.736C524.484 388.814 528.95 365.666 543.813 330.737C548 320.899 540.74 310 530 310H455C446.716 310 440 316.68 440 324.921V369.683C440 377.923 446.716 384.604 455 384.604C463.284 384.604 470 377.923 470 369.683ZM475 415C475 426.046 466.046 435 455 435C443.954 435 435 426.046 435 415C435 403.954 443.954 395 455 395C466.046 395 475 403.954 475 415Z" fill="white" />
		<path fill-rule="evenodd" clip-rule="evenodd" d="M622.077 418.187H600V338.85H622.077V356.078H622.822C624.612 347.313 630.579 338.85 642.811 338.85H646.689V359.704H641.17C628.342 359.704 622.077 362.576 622.077 371.794V418.187ZM689.113 420C665.098 420 651.523 403.83 651.523 378.443C651.523 353.357 664.65 337.037 688.218 337.037C714.173 337.037 724.615 356.078 724.615 377.536V384.185H674.346V385.394C674.346 395.821 679.865 402.47 691.649 402.47C700.897 402.47 705.969 398.088 710.891 392.95L721.93 406.853C714.919 415.013 703.433 420 689.113 420ZM688.666 353.509C679.865 353.509 674.346 360.007 674.346 369.829V371.038H701.792V369.678C701.792 360.007 697.466 353.509 688.666 353.509ZM778.673 418.187H752.42L726.763 338.85H748.541L758.237 370.887L765.546 399.599H766.74L774.049 370.887L783.446 338.85H804.329L778.673 418.187ZM877.93 418.187L850.334 372.247L836.76 388.87V418.187H814.087V312.707H836.76V362.878H837.655L852.423 342.477L875.842 312.707H901.498L866.444 356.078L904.631 418.187H877.93ZM924.683 330.388C915.733 330.388 911.855 325.703 911.855 319.356V316.032C911.855 309.685 915.733 305 924.683 305C933.633 305 937.512 309.685 937.512 316.032V319.356C937.512 325.703 933.633 330.388 924.683 330.388ZM913.643 418.187V338.85H935.719V418.187H913.643ZM993.807 418.187H980.68C965.465 418.187 957.41 410.177 957.41 395.066V356.229H946.372V338.85H951.891C957.858 338.85 959.648 335.828 959.648 330.388V317.392H979.487V338.85H995V356.229H979.487V400.808H993.807V418.187Z" fill="white" />
	</g>
	<defs>
		<clipPath id="clip0_30_6398">
			<rect width="1440" height="720" fill="white" />
		</clipPath>
	</defs>
</svg>
	